# xmcd
#
# Track frame offsets:
#	150
#	12995
#	25744
#	38199
#	50455
#	62033
#	77590
#	88963
#	101741
#	114277
#	125061
#	137968
#	150410
#	164089
#	179167
#
# Disc length: 2549 seconds
#
# Revision: 1
# Processed by: cddbd v1.5.2PL0 Copyright (c) Steve Scherf et al.
# Submitted via: audiograbber 1.83.01
#
DISCID=ce09f30f
DTITLE=Chartbuster Best of 1953 Country - 80089
DYEAR=2005
DGENRE=Country
TTITLE0=Jean Shepard - A Dear John Letter
TTITLE1=Carl Smith - Hey Joe
TTITLE2=Ernest Tubb - Missing In Action
TTITLE3=Hank Williams  - I'll Never Get Out Of This World Alive 
TTITLE4=Webb Pierce  - It's Been So Long 
TTITLE5=Hank Williams  - Kaw-Liga 
TTITLE6=Hank Locklin  - Let Me Be The One 
TTITLE7=Jim Reeves  - Mexican Joe 
TTITLE8=Lefty Frizzell  - I'm An Old, Old Man (Tryin' To Live While I Can) 
TTITLE9=Hank Thompson  - Rub-A-Dub -Dub 
TTITLE10=Hank Williams  - Take These Chains From My Heart 
TTITLE11=Webb Pierce  - There Stands The Glass 
TTITLE12=Hank Williams  - Your Cheatin' Heart 
TTITLE13=Davis Sisters  - I Forgot More Than You'll Ever Know 
TTITLE14=Carlisles, The  - No Help Wanted 
EXTD=Karaoke Time Line Series
EXTT0=
EXTT1=
EXTT2=
EXTT3=
EXTT4=
EXTT5=
EXTT6=
EXTT7=
EXTT8=
EXTT9=
EXTT10=
EXTT11=
EXTT12=
EXTT13=
EXTT14=
PLAYORDER=
